<svg xmlns="http://www.w3.org/2000/svg" viewBox="0 0 37 37" shape-rendering="crispEdges"><path fill="#FFFFFF" d="M0 0h37v37H0z"/><path stroke="#1A5799" d="M2 2.5h7m1 0h1m2 0h2m5 0h1m2 0h1m4 0h7M2 3.5h1m5 0h1m1 0h1m1 0h1m5 0h1m1 0h2m4 0h1m1 0h1m5 0h1M2 4.5h1m1 0h3m1 0h1m1 0h2m2 0h1m2 0h1m1 0h1m3 0h2m3 0h1m1 0h3m1 0h1M2 5.5h1m1 0h3m1 0h1m2 0h2m1 0h1m4 0h1m2 0h3m3 0h1m1 0h3m1 0h1M2 6.5h1m1 0h3m1 0h1m1 0h2m1 0h1m2 0h2m2 0h2m1 0h1m1 0h2m1 0h1m1 0h3m1 0h1M2 7.5h1m5 0h1m3 0h4m6 0h5m1 0h1m5 0h1M2 8.5h7m1 0h1m1 0h1m1 0h1m1 0h1m1 0h1m1 0h1m1 0h1m1 0h1m1 0h1m1 0h7M12 9.5h2m1 0h1m6 0h1M2 10.5h1m2 0h6m5 0h2m1 0h1m2 0h1m4 0h1m2 0h1m1 0h3M3 11.5h1m1 0h1m5 0h2m1 0h1m1 0h1m2 0h1m1 0h1m2 0h2m4 0h3M2 12.5h3m1 0h4m2 0h3m1 0h5m2 0h1m1 0h4m1 0h5M4 13.5h1m1 0h1m2 0h1m2 0h3m1 0h2m2 0h1m6 0h1m1 0h1m2 0h1m1 0h1M2 14.5h2m1 0h4m2 0h1m3 0h2m1 0h3m2 0h1m2 0h1m1 0h3m2 0h2M3 15.5h1m3 0h1m3 0h1m1 0h3m2 0h1m1 0h1m2 0h3m1 0h1m1 0h1m1 0h2M4 16.5h3m1 0h2m3 0h1m4 0h3m1 0h3m3 0h1m2 0h2M2 17.5h1m1 0h2m3 0h1m2 0h1m1 0h4m2 0h1m1 0h1m4 0h1m1 0h4m1 0h1M2 18.5h2m2 0h1m1 0h3m1 0h5m3 0h3m1 0h1m1 0h5M3 19.5h5m2 0h2m3 0h1m1 0h7m2 0h3m1 0h1m1 0h2M2 20.5h1m5 0h1m4 0h5m1 0h7m2 0h2m1 0h2m1 0h1M3 21.5h3m1 0h1m1 0h5m1 0h2m1 0h3m2 0h1m1 0h1m1 0h2m1 0h4M4 22.5h3m1 0h1m4 0h4m1 0h5m1 0h1m1 0h1m4 0h1m1 0h1M2 23.5h1m6 0h8m1 0h2m2 0h1m1 0h3m2 0h4M2 24.5h1m1 0h5m1 0h1m5 0h2m4 0h2m1 0h4m2 0h1m1 0h2M2 25.5h1m4 0h1m1 0h1m3 0h1m2 0h1m1 0h3m3 0h2m1 0h4m1 0h1M2 26.5h2m1 0h1m2 0h1m3 0h3m2 0h2m2 0h1m3 0h7M10 27.5h2m4 0h3m1 0h1m4 0h2m3 0h1m1 0h1M2 28.5h7m1 0h2m1 0h1m1 0h3m3 0h1m2 0h3m1 0h1m1 0h1m1 0h1M2 29.5h1m5 0h1m1 0h1m1 0h2m1 0h1m1 0h1m1 0h2m2 0h4m3 0h5M2 30.5h1m1 0h3m1 0h1m1 0h1m1 0h1m3 0h1m1 0h1m3 0h2m1 0h6m2 0h2M2 31.5h1m1 0h3m1 0h1m1 0h1m1 0h4m1 0h5m5 0h1m1 0h1m1 0h1m2 0h1M2 32.5h1m1 0h3m1 0h1m6 0h1m1 0h1m2 0h1m2 0h2m1 0h1m2 0h2m1 0h3M2 33.5h1m5 0h1m3 0h1m5 0h1m5 0h2m1 0h1m1 0h6M2 34.5h7m1 0h1m2 0h1m1 0h1m1 0h3m1 0h1m3 0h2m2 0h2"/></svg>
